Coordinates
version=1
nRows=12
nColumns=24
inDegrees=yes

Units are S.I. units (second, meters, Newtons, ...)
Angles are in degrees.

endheader
time	pelvis_tilt	pelvis_list	pelvis_rotation	pelvis_tx	pelvis_ty	pelvis_tz	hip_flexion_r	hip_adduction_r	hip_rotation_r	knee_angle_r	ankle_angle_r	subtalar_angle_r	mtp_angle_r	hip_flexion_l	hip_adduction_l	hip_rotation_l	knee_angle_l	ankle_angle_l	subtalar_angle_l	mtp_angle_l	lumbar_extension	lumbar_bending	lumbar_rotation
      7.27000000	     60.06399852	      4.94789614	     -1.33367939	      0.56295948	      1.00017830	     -0.28738572	     -5.38994945	    -15.51302178	     12.16759896	    -45.73082131	     -8.71891586	     10.92278192	    -45.98499940	     -4.10300834	     -7.35576611	      1.00507688	    -55.42965935	     -2.53223829	      9.41988169	    -28.76904368	      0.00000000	      0.00000000	      0.00000000
      7.28000000	     60.06513920	      4.94714268	     -1.33774043	      0.56295853	      1.00016770	     -0.28738408	     -5.39388866	    -15.53380842	     12.19563357	    -45.80830099	     -8.75513243	     10.88217057	    -46.08280814	     -4.10664165	     -7.35318659	      1.00154598	    -55.41843781	     -2.53276029	      9.41576712	    -28.74600469	      0.00000000	      0.00000000	      0.00000000
      7.29000000	     60.06423662	      4.94591365	     -1.34063498	      0.56295257	      1.00016458	     -0.28737322	     -5.39248020	    -15.55162614	     12.22313757	    -45.88443746	     -8.79026556	     10.83759326	    -46.22141458	     -4.10835113	     -7.34948656	      0.99763819	    -55.40962263	     -2.53161508	      9.40875754	    -28.71575085	      0.00000000	      0.00000000	      0.00000000
      7.30000000	     60.06099627	      4.94395026	     -1.34237369	      0.56294669	      1.00017115	     -0.28736449	     -5.38537105	    -15.56729769	     12.24985266	    -45.96028021	     -8.82024202	     10.78772963	    -46.39791502	     -4.10767381	     -7.34494716	      0.99471309	    -55.40316665	     -2.52851340	      9.40093136	    -28.67806181	      0.00000000	      0.00000000	      0.00000000
      7.31000000	     60.05517222	      4.94140683	     -1.34377688	      0.56294570	      1.00017575	     -0.28736923	     -5.37340132	    -15.58146839	     12.27525703	    -46.03594843	     -8.84230291	     10.73174982	    -46.60693569	     -4.10399787	     -7.34021805	      0.99414903	    -55.39873120	     -2.52404963	      9.39460582	    -28.63404403	      0.00000000	      0.00000000	      0.00000000
      7.32000000	     60.04701353	      4.93855472	     -1.34567340	      0.56294643	      1.00017271	     -0.28738388	     -5.35788309	    -15.59434105	     12.29862378	    -46.11036823	     -8.85593592	     10.67011240	    -46.84104798	     -4.09701050	     -7.33568635	      0.99674008	    -55.39617621	     -2.51931773	      9.39152905	    -28.58598173	      0.00000000	      0.00000000	      0.00000000
      7.33000000	     60.03749710	      4.93562421	     -1.34816643	      0.56294198	      1.00016615	     -0.28739717	     -5.33990020	    -15.60575670	     12.31928923	    -46.18154075	     -8.86302812	     10.60495283	    -47.09125633	     -4.08718634	     -7.33132080	      1.00229333	    -55.39570480	     -2.51544331	      9.39233016	    -28.53694683	      0.00000000	      0.00000000	      0.00000000
      7.34000000	     60.02798076	      4.93285144	     -1.35069494	      0.56293070	      1.00015482	     -0.28740263	     -5.32035139	    -15.61543538	     12.33694569	    -46.24728401	     -8.86699763	     10.53987069	    -47.34757271	     -4.07582175	     -7.32694793	      1.00969418	    -55.39755677	     -2.51320605	      9.39644240	    -28.49027113	      0.00000000	      0.00000000	      0.00000000
      7.35000000	     60.01972895	      4.93038810	     -1.35260374	      0.56291573	      1.00013890	     -0.28740066	     -5.30035878	    -15.62327273	     12.35188921	    -46.30609439	     -8.87120427	     10.47913563	    -47.59965350	     -4.06455917	     -7.32254834	      1.01741586	    -55.40155718	     -2.51285107	      9.40246362	    -28.44899064	      0.00000000	      0.00000000	      0.00000000
      7.36000000	     60.01351010	      4.92820712	     -1.35372810	      0.56290183	      1.00013304	     -0.28739540	     -5.28154201	    -15.62945210	     12.36505673	    -46.35769777	     -8.87740250	     10.42663166	    -47.83742168	     -4.05483227	     -7.31837390	      1.02416946	    -55.40688119	     -2.51410782	      9.40873519	    -28.41535337	      0.00000000	      0.00000000	      0.00000000
      7.37000000	     60.00914524	      4.92629919	     -1.35474339	      0.56289349	      1.00014237	     -0.28739129	     -5.26601470	    -15.63411488	     12.37763861	    -46.40305432	     -8.88501549	     10.38495722	    -48.05159555	     -4.04764232	     -7.31479470	      1.02929236	    -55.41226173	     -2.51636451	      9.41388941	    -28.39045878	      0.00000000	      0.00000000	      0.00000000
      7.38000000	     60.00594642	      4.92476942	     -1.35672851	      0.56289100	      1.00015076	     -0.28739101	     -5.25541640	    -15.63699934	     12.39054947	    -46.44373019	     -8.89150998	     10.35489000	    -48.23409568	     -4.04361211	     -7.31196551	      1.03273516	    -55.41652726	     -2.51889924	      9.41718486	    -28.37407637	      0.00000000	      0.00000000	      0.00000000
